<svg width="19" height="20" viewBox="0 0 19 20" fill="none" xmlns="http://www.w3.org/2000/svg">
<path d="M3.97501 20V10.85C3.07501 10.6167 2.35001 10.1417 1.80001 9.425C1.25001 8.70833 0.975006 7.9 0.975006 7V0H2.97501V6H3.97501V0H5.97501V6H6.97501V0H8.97501V7C8.97501 7.9 8.70001 8.70833 8.15001 9.425C7.60001 10.1417 6.87501 10.6167 5.97501 10.85V20H3.97501ZM13.975 20V10.475C13.075 10.175 12.35 9.54583 11.8 8.5875C11.25 7.62917 10.975 6.54167 10.975 5.325C10.975 3.84167 11.3667 2.58333 12.15 1.55C12.9333 0.516667 13.875 0 14.975 0C16.075 0 17.0167 0.520833 17.8 1.5625C18.5833 2.60417 18.975 3.86667 18.975 5.35C18.975 6.56667 18.7 7.65 18.15 8.6C17.6 9.55 16.875 10.175 15.975 10.475V20H13.975Z" fill="#4A4459"/>
</svg>
