<svg width="17" height="16" viewBox="0 0 17 16" fill="none" xmlns="http://www.w3.org/2000/svg">
<path d="M8.97501 8C7.87501 8 6.93334 7.60833 6.15001 6.825C5.36667 6.04167 4.97501 5.1 4.97501 4C4.97501 2.9 5.36667 1.95833 6.15001 1.175C6.93334 0.391667 7.87501 0 8.97501 0C10.075 0 11.0167 0.391667 11.8 1.175C12.5833 1.95833 12.975 2.9 12.975 4C12.975 5.1 12.5833 6.04167 11.8 6.825C11.0167 7.60833 10.075 8 8.97501 8ZM0.975006 16V13.2C0.975006 12.6333 1.12084 12.1125 1.41251 11.6375C1.70417 11.1625 2.09167 10.8 2.57501 10.55C3.60834 10.0333 4.65834 9.64583 5.72501 9.3875C6.79167 9.12917 7.87501 9 8.97501 9C10.075 9 11.1583 9.12917 12.225 9.3875C13.2917 9.64583 14.3417 10.0333 15.375 10.55C15.8583 10.8 16.2458 11.1625 16.5375 11.6375C16.8292 12.1125 16.975 12.6333 16.975 13.2V16H0.975006ZM2.97501 14H14.975V13.2C14.975 13.0167 14.9292 12.85 14.8375 12.7C14.7458 12.55 14.625 12.4333 14.475 12.35C13.575 11.9 12.6667 11.5625 11.75 11.3375C10.8333 11.1125 9.90834 11 8.97501 11C8.04167 11 7.11667 11.1125 6.20001 11.3375C5.28334 11.5625 4.37501 11.9 3.47501 12.35C3.32501 12.4333 3.20417 12.55 3.11251 12.7C3.02084 12.85 2.97501 13.0167 2.97501 13.2V14ZM8.97501 6C9.52501 6 9.99584 5.80417 10.3875 5.4125C10.7792 5.02083 10.975 4.55 10.975 4C10.975 3.45 10.7792 2.97917 10.3875 2.5875C9.99584 2.19583 9.52501 2 8.97501 2C8.42501 2 7.95417 2.19583 7.56251 2.5875C7.17084 2.97917 6.97501 3.45 6.97501 4C6.97501 4.55 7.17084 5.02083 7.56251 5.4125C7.95417 5.80417 8.42501 6 8.97501 6Z" fill="#4A4459"/>
</svg>
